# xmcd
#
# Track frame offsets: 
#        150
#        22025
#        44475
#        59359
#        75651
#        96544
#        115404
#        140786
#        159359
#        172324
#        182625
#
# Disc length: 2644 seconds
#
# Revision: 0
# Processed by: cddbd v1.5.2PL0 Copyright (c) Steve Scherf et al.
# Submitted via: ExactAudioCopy v1.1
#
DISCID=a00a520b
DTITLE=The Frank Burkitt Band - Fools And Kings
DYEAR=2011
DGENRE=
TTITLE0=Waste Of Space
TTITLE1=Rainbow Rose
TTITLE2=Country Mile
TTITLE3=Heave And Row
TTITLE4=Old Town
TTITLE5=Big Val
TTITLE6=Waltz Of The Devil
TTITLE7=I Will Look For You
TTITLE8=I Ain't Going Home Tonight
TTITLE9=The Prettiest Dame Around
TTITLE10=The Whisky They Pour
EXTD=
EXTT0=
EXTT1=
EXTT2=
EXTT3=
EXTT4=
EXTT5=
EXTT6=
EXTT7=
EXTT8=
EXTT9=
EXTT10=
PLAYORDER=
